<svg width="41" height="28" viewBox="0 0 41 28" fill="none" xmlns="http://www.w3.org/2000/svg">
<path d="M21.6916 9.2455C21.7111 7.33326 22.3178 5.47319 23.4295 3.91715C24.5411 2.3611 26.1041 1.18424 27.9067 0.545886C29.7094 -0.0924643 31.6647 -0.161454 33.5078 0.348239C35.351 0.857932 36.9931 1.9217 38.2116 3.39551C39.9908 5.5635 40.925 8.3022 40.8416 11.1055C40.8416 16.6988 36.0983 22.0922 26.6116 27.2855L25.2516 25.1655C28.4716 22.4988 30.0816 20.3522 30.0816 18.7255C30.0816 18.2155 29.4016 17.7255 28.0816 17.2055C26.5819 16.7546 25.176 16.0364 23.9316 15.0855C22.4383 13.8455 21.6916 11.8988 21.6916 9.2455Z" fill="#231F20"/>
<path d="M0.00163067 9.24562C-0.0439761 6.81952 0.868643 4.47324 2.54161 2.71562C3.38863 1.84368 4.40462 1.15366 5.52739 0.6877C6.65015 0.221744 7.85613 -0.0103432 9.07164 0.0056321C10.4666 -0.0441823 11.8535 0.237028 13.1188 0.82625C14.3842 1.41547 15.492 2.29595 16.3516 3.39563C18.1801 5.54046 19.146 8.28843 19.0616 11.1056C19.0616 16.699 14.3183 22.0923 4.83165 27.2856L3.31163 25.1656C6.64496 22.499 8.31163 20.3523 8.31163 18.7256C8.31163 18.2156 7.58162 17.7256 6.11162 17.2056C4.64405 16.7434 3.26962 16.0258 2.05162 15.0856C0.684952 13.8456 0.00163067 11.899 0.00163067 9.24562Z" fill="#231F20"/>
</svg>
