<svg width="102" height="100" viewBox="0 0 102 100" fill="none" xmlns="http://www.w3.org/2000/svg">
<path fill-rule="evenodd" clip-rule="evenodd" d="M50.5271 0.0794012C49.81 0.227677 45.2326 2.04548 43.9982 2.67215C43.6106 2.86879 42.979 3.37798 42.5946 3.80346C40.9855 5.58454 40.8382 7.78913 42.1303 10.7584L42.8606 12.4366L41.906 13.2228C40.6485 14.2582 37.9764 16.9265 36.9772 18.1443L36.1819 19.1135L34.3216 18.3417C32.7121 17.6738 32.2622 17.5708 30.9808 17.5765C29.2978 17.5838 28.3426 17.9749 27.301 19.0827C26.5548 19.8764 26.297 20.3734 24.9112 23.6905C23.7327 26.5111 23.4614 27.9656 23.8768 29.2393C24.2385 30.3489 25.1086 31.5375 25.9797 32.1124C27.1541 32.8875 31.6578 34.6483 32.4655 34.6483C34.1238 34.6483 34.9844 32.5341 33.7943 31.3846C33.4957 31.0962 32.1036 30.3832 30.7008 29.8C29.298 29.217 28.0779 28.6255 27.989 28.4857C27.9004 28.3459 27.8265 28.0266 27.8248 27.7761C27.8216 27.2955 29.606 22.8254 30.1052 22.0638C30.5985 21.3108 31.2436 21.4413 35.0717 23.0696C36.3673 23.6206 37.2757 23.7237 37.898 23.3906C38.1047 23.28 38.8263 22.4636 39.5018 21.5766C41.0677 19.5195 43.3946 17.1921 45.2776 15.7995C46.9531 14.5604 47.3681 14.0609 47.3681 13.2832C47.3681 12.9827 46.8642 11.4998 46.2482 9.98779C45.1957 7.40333 45.1467 7.21103 45.431 6.77726C45.6342 6.46748 46.6559 5.93282 48.543 5.149C52.2428 3.61215 52.0556 3.54265 53.5439 7.00491C54.1718 8.46515 54.8825 9.87288 55.1234 10.1335C55.5503 10.5949 55.6105 10.603 57.4374 10.4425C59.8621 10.2296 64.9159 10.2316 67.3122 10.4462C69.1679 10.6123 69.1965 10.6083 69.6759 10.1104C69.9426 9.83319 70.6536 8.42329 71.256 6.97746C72.688 3.53968 72.5139 3.60425 76.2034 5.14248C78.8107 6.22937 79.5503 6.71724 79.5503 7.35042C79.5503 7.4908 79.0974 8.69003 78.5438 10.0152C76.9477 13.835 76.9653 13.948 79.4419 15.7796C81.3626 17.2 83.7007 19.5323 85.2409 21.5643C85.9185 22.4581 86.6585 23.2889 86.8855 23.4104C87.6216 23.8042 88.4907 23.6323 90.9004 22.6159C93.5528 21.497 94.2069 21.4004 94.6414 22.0638C95.3187 23.0974 96.9455 27.3946 96.8867 27.9947C96.816 28.7161 96.798 28.7271 93.4051 30.1349C90.3436 31.4052 90.2169 31.5868 90.5614 34.206C91.0724 38.09 91.0682 38.6679 90.4903 44.0327C90.3051 45.7523 90.683 46.1334 93.8989 47.4687C96.5414 48.5658 96.9248 48.8353 96.9248 49.5957C96.9248 50.0697 95.1376 54.5419 94.6334 55.3298C94.2094 55.9922 93.5492 55.8935 90.9004 54.7719C88.3148 53.6769 87.296 53.5211 86.6287 54.1184C86.3996 54.3231 85.6839 55.1831 85.0379 56.0292C83.5591 57.9664 81.4434 60.0739 79.6192 61.4265C77.9385 62.6731 77.3785 63.3355 77.3785 64.0783C77.3785 64.3813 77.8705 65.8384 78.4719 67.3162C79.9045 70.8373 79.9896 70.6551 76.1939 72.1989C74.3583 72.9456 73.1729 73.3237 72.8904 73.253C72.3757 73.1243 72.1482 72.7195 71.072 70.0186C70.0795 67.5271 69.9367 67.2993 69.128 66.9156C68.2713 66.5089 67.4551 66.6989 66.821 67.4525C66.126 68.2784 66.186 68.8912 67.2046 71.3783C68.8406 75.3727 69.3598 76.1141 71.0605 76.8839C72.7121 77.6314 74.0154 77.4712 77.4117 76.1032C80.6641 74.7932 81.5995 74.2769 82.3609 73.372C83.7625 71.7065 83.8434 69.4861 82.6088 66.5745C82.2037 65.6193 81.9052 64.8161 81.9453 64.7898C82.9081 64.1588 85.7961 61.4593 86.9442 60.1167C87.7797 59.14 88.5363 58.3408 88.6257 58.3408C88.7152 58.3408 89.6741 58.6961 90.7567 59.1305C91.8941 59.5868 93.0548 59.9202 93.5058 59.9202C95.5248 59.9202 97.5189 58.7208 98.3847 56.9859C98.636 56.4823 99.3547 54.7932 99.9815 53.2323C101.032 50.6176 101.113 50.3041 101.017 49.2462C100.887 47.8124 100.216 46.441 99.2321 45.5987C98.8161 45.2428 97.6603 44.6189 96.6638 44.2125L94.8517 43.4737V38.68V33.8862L96.6788 33.163C99.5124 32.0413 100.851 30.4887 101.031 28.1171C101.104 27.1486 100.988 26.6945 100.076 24.3658C98.2153 19.6111 97.5043 18.5801 95.5927 17.8649C94.0087 17.2722 93.0468 17.3548 90.6586 18.2884L88.5683 19.1058L87.6731 18.0416C86.5732 16.7346 84.3443 14.5012 82.9597 13.3188L81.9267 12.4366L82.6254 10.7791C83.5244 8.64699 83.7249 7.57313 83.4586 6.32019C82.9715 4.02992 81.9336 3.13119 77.7645 1.3892C74.002 -0.182795 72.9642 -0.32416 71.1115 0.482963C69.6814 1.10588 68.9164 2.04094 67.912 4.39321L67.051 6.40963L66.2423 6.26412C65.2273 6.08149 58.8972 6.08524 58.2117 6.26886C57.7274 6.39858 57.6707 6.32651 57.0393 4.78117C55.929 2.06286 55.2506 1.20163 53.6837 0.520871C52.601 0.0505754 51.4465 -0.110928 50.5271 0.0794012ZM60.2135 22.2161C52.4853 23.2816 46.3923 29.6543 45.8541 37.2345C45.6733 39.7838 46.235 40.7688 47.87 40.7688C48.9799 40.7688 49.6696 39.9593 49.8179 38.4825C50.0114 36.5547 50.3395 35.0019 50.7745 33.9573C54.2154 25.6906 64.845 23.5369 71.1393 29.831C73.4618 32.1535 74.5949 34.7128 74.7595 38.0077C74.9516 41.8482 73.8183 44.766 71.0773 47.4884C68.8723 49.6784 66.3694 50.8494 63.274 51.1394C61.5922 51.2972 60.7488 51.7835 60.5105 52.7331C60.3286 53.4575 60.7215 54.4966 61.3277 54.8937C61.9684 55.3136 64.0415 55.3057 65.9143 54.8761C71.037 53.7014 75.0004 50.5461 77.2725 45.8337C78.4042 43.4864 78.7478 42.1398 78.8933 39.4815C79.3221 31.6427 74.1293 24.576 66.508 22.6269C64.6859 22.161 61.9222 21.9805 60.2135 22.2161ZM26.1355 40.8413C24.3732 41.6618 23.4782 43.3026 23.4782 45.7129V46.8339L22.1859 47.258C21.4752 47.4914 20.2398 47.9925 19.4408 48.3717C18.6416 48.751 17.9213 49.0612 17.84 49.0612C17.7584 49.0612 17.2178 48.6128 16.6384 48.0647C15.3902 46.8843 14.5479 46.4929 13.2671 46.4989C11.7723 46.5058 10.8483 47.0673 8.68203 49.2857C6.46047 51.5608 5.9574 52.5316 6.17557 54.1227C6.33312 55.2734 6.65771 55.8601 7.84055 57.133L8.82833 58.1956L8.08478 59.6997C7.67569 60.5268 7.14795 61.7924 6.91181 62.512L6.48258 63.8202L4.86162 63.9093C2.54173 64.0366 1.34546 64.7237 0.462917 66.4357C0.19618 66.953 0.08542 67.7271 0.0220427 69.5151C-0.10945 73.2317 0.321356 74.5894 2.02011 75.8106C2.74569 76.332 3.01519 76.3997 4.64878 76.4712L6.46916 76.5508L6.9282 77.9532C7.18052 78.7246 7.71301 80.0243 8.11124 80.8417L8.83544 82.3276L7.80008 83.4145C6.01268 85.2907 5.67348 87.1532 6.77775 89.0262C7.52762 90.2977 10.8061 93.3837 11.7307 93.6881C13.4197 94.2445 15.0685 93.8907 16.3704 92.6923C18.0648 91.1329 17.6488 91.1953 19.7431 92.1864C20.7658 92.6703 22.0244 93.1789 22.5403 93.3164L23.4782 93.5665V94.4858C23.4782 97.0434 24.2738 98.6853 25.9078 99.4995C26.8494 99.9688 27.0982 100 29.8949 100C32.6916 100 32.9403 99.9688 33.8819 99.4995C35.5203 98.6831 36.4115 96.827 36.2792 94.5075L36.2304 93.6548L37.6962 93.1612C38.5026 92.8897 39.7669 92.3641 40.5059 91.9931L41.8499 91.3185L43.2452 92.4901C44.9805 93.947 46.08 94.2623 47.7242 93.774C48.5896 93.517 49.0953 93.1497 50.6522 91.6476C52.7245 89.6482 53.4002 88.6784 53.6025 87.4124C53.8231 86.0331 53.3828 84.9097 52.0724 83.5089L50.9212 82.278L51.6882 80.7242C52.1101 79.8697 52.6507 78.5706 52.8894 77.8377L53.3234 76.505L54.8375 76.5006C57.1031 76.4941 58.4749 75.7267 59.3438 73.9792C59.6508 73.3622 59.7077 72.7667 59.7063 70.187C59.7047 67.4371 59.6617 67.0465 59.2812 66.337C58.4058 64.704 57.2048 64.0327 54.9372 63.9091L53.3255 63.8212L52.7915 62.315C52.4979 61.4865 51.9577 60.2125 51.5911 59.4835L50.9245 58.1583L51.9938 57.0629C53.6501 55.3666 54.0975 53.3782 53.2096 51.6613C52.7516 50.7756 49.1203 47.2584 48.2565 46.8639C47.3013 46.4276 45.8251 46.3915 44.8916 46.7814C44.5139 46.9393 43.7309 47.5168 43.1514 48.0647C42.5719 48.6128 42.0051 49.0612 41.8918 49.0612C41.7784 49.0612 41.0763 48.7617 40.3314 48.3954C39.5865 48.0294 38.3894 47.5328 37.6713 47.2922L36.3657 46.8544L36.2616 45.3383C36.0903 42.8374 35.4156 41.6778 33.6462 40.8433C32.7557 40.4235 32.3881 40.3779 29.8949 40.3779C27.4088 40.3779 27.0307 40.4245 26.1355 40.8413ZM32.1259 44.5596C32.2793 44.713 32.3628 45.5097 32.3628 46.8209C32.3628 47.9342 32.4592 49.0569 32.5771 49.3155C32.8545 49.9242 33.5795 50.3321 34.9295 50.6387C36.3819 50.9686 38.6874 51.9156 40.2603 52.8281C42.4027 54.0712 42.8211 53.9979 44.85 52.0228C45.7424 51.154 46.5165 50.4433 46.5704 50.4433C46.7203 50.4433 49.7373 53.4759 49.7373 53.6263C49.7373 53.699 49.04 54.4635 48.1876 55.3249C47.3353 56.1865 46.5775 57.1322 46.5037 57.4264C46.3643 57.9824 46.5878 58.569 47.7554 60.71C48.4226 61.9331 49.207 63.9225 49.546 65.2511C49.8933 66.6114 50.2996 67.3459 50.842 67.5929C51.1135 67.7166 52.2463 67.8177 53.3597 67.8177C54.6709 67.8177 55.4675 67.9013 55.6209 68.0547C55.9552 68.3889 55.9465 72.278 55.6111 72.4952C55.4754 72.5831 54.4111 72.6656 53.246 72.6788C50.2481 72.7126 50.2973 72.6694 49.2461 76.2088C48.9559 77.1861 48.2305 78.9135 47.634 80.0474C46.5633 82.0834 46.3513 82.8549 46.6974 83.4573C46.7947 83.6269 47.5185 84.4487 48.3059 85.2834C49.0931 86.118 49.7373 86.8679 49.7373 86.9496C49.7373 87.0313 49.0254 87.7909 48.1553 88.6377L46.573 90.1775L44.9246 88.595C42.6945 86.454 42.6231 86.4446 39.8264 87.9295C38.5284 88.6185 36.7558 89.3621 35.5894 89.7068C34.4863 90.0328 33.4043 90.4117 33.1848 90.5487C32.5305 90.9574 32.3628 91.6172 32.3628 93.7831C32.3628 96.3081 32.367 96.3044 29.6347 96.2135L27.7231 96.15L27.5945 95.0641C27.5239 94.4668 27.4571 93.3904 27.4465 92.6721C27.4194 90.8668 27.0927 90.4918 25.0717 89.9465C23.0049 89.3887 21.0746 88.5816 19.4183 87.5828C17.405 86.3683 16.9158 86.4795 14.7967 88.6326C14.094 89.3465 13.4276 89.9303 13.3159 89.9297C13.1226 89.9287 11.1636 88.1178 10.3707 87.2073C9.99854 86.7796 9.99993 86.7772 11.6495 85.0872C13.7129 82.9732 13.7457 82.7284 12.2995 80.2322C11.4246 78.7224 10.8842 77.3437 9.99223 74.3452C9.5707 72.9286 9.04216 72.6672 6.43539 72.5868C5.05195 72.5442 4.17395 72.4336 4.08313 72.2907C3.9082 72.0158 3.88233 68.5717 4.05173 68.1301C4.15085 67.8718 4.54237 67.8177 6.31298 67.8177C7.4907 67.8177 8.67236 67.7184 8.9387 67.597C9.53792 67.3241 9.87969 66.6392 10.5531 64.3626C10.8424 63.3853 11.609 61.5586 12.257 60.3035C13.229 58.4207 13.4105 57.9196 13.2928 57.4406C13.2101 57.1036 12.4835 56.1743 11.5615 55.2262L9.97288 53.5924L11.5382 52.0178C12.399 51.1519 13.1883 50.4433 13.292 50.4433C13.3958 50.4433 14.2089 51.154 15.0989 52.0228C17.1685 54.0427 17.2867 54.057 20.0013 52.6066C21.997 51.5402 22.9344 51.1647 24.9171 50.6375C25.6543 50.4417 26.4727 50.1402 26.7357 49.968C27.3997 49.5329 27.668 48.3735 27.5094 46.6238C27.3081 44.4023 27.3896 44.3227 29.8623 44.3227C31.1755 44.3227 31.9725 44.4062 32.1259 44.5596ZM28.3154 58.2705C23.5125 58.9927 19.4353 62.618 18.2441 67.2254C17.7324 69.2047 17.807 71.8952 18.4277 73.855C19.2909 76.5806 20.8584 78.6768 23.2083 80.2484C25.2668 81.6253 27.3302 82.2516 29.7877 82.2453C34.479 82.233 38.1677 80.0551 40.5125 75.9127C42.2507 72.8419 42.3372 68.1779 40.7152 64.9772C39.1389 61.8668 36.2656 59.4817 33.1011 58.6574C31.8955 58.3435 29.252 58.1297 28.3154 58.2705ZM32.1654 62.5319C36.0101 63.6802 38.42 67.4552 37.8745 71.4751C37.4656 74.4878 34.9647 77.2673 31.9332 78.0781C30.624 78.4282 28.1752 78.2519 26.7783 77.707C25.1848 77.085 23.4685 75.4538 22.6426 73.7764C22.0319 72.5361 21.9974 72.3487 21.9974 70.2857C21.9974 68.2327 22.0341 68.0308 22.6282 66.8242C24.3945 63.2362 28.4352 61.4176 32.1654 62.5319Z" fill="#3E322F"/>
</svg>
