<svg width="100" height="100" viewBox="0 0 100 100" fill="none" xmlns="http://www.w3.org/2000/svg">
<g clip-path="url(#clip0_16_2)">
<path d="M28.603 65.6572C31.1085 64.0411 33.5027 64.0432 35.4102 65.6679C35.9555 66.1316 36.3986 66.7035 36.7114 67.3473C37.0241 67.9912 37.1998 68.693 37.2272 69.4083C37.2546 70.1236 37.1332 70.8367 36.8706 71.5027C36.608 72.1686 36.21 72.7727 35.7017 73.2768C33.4498 75.563 31.1764 77.8306 28.8816 80.0797C28.3372 80.6091 28.3586 80.8985 28.8945 81.4193C31.1428 83.6098 33.3483 85.8432 35.5581 88.0637C37.6908 90.207 37.7829 93.3771 35.7918 95.4625C33.837 97.5073 30.4334 97.5266 28.29 95.4368C26.0117 93.2249 23.7762 90.9701 21.5599 88.7003C21.0412 88.1687 20.7648 88.1751 20.2439 88.7153C18.2356 90.7943 16.1716 92.8155 14.1247 94.8581C11.6105 97.3723 9.95585 97.6702 6.74083 96.1698L6.72583 96.2213C6.72583 96.0584 6.63367 95.9919 6.48363 95.9855L6.50292 96.0155C6.50292 95.8569 6.38289 95.8012 6.26072 95.7669C3.87089 92.8048 4.01235 90.2928 6.72797 87.5707C8.71914 85.5753 10.691 83.5605 12.7293 81.6037C13.3723 80.9714 13.5181 80.607 12.7658 79.889C10.4424 77.6749 8.16402 75.4094 5.9628 73.0753C5.04998 72.096 4.55681 70.7982 4.58886 69.4599C4.62091 68.1215 5.17562 66.8488 6.13426 65.9144C7.09899 64.9646 8.3962 64.4287 9.74996 64.4207C11.1037 64.4127 12.4072 64.9332 13.3831 65.8715C14.4676 66.9046 15.5028 67.9891 16.5616 69.0479C17.7984 70.2825 19.0586 71.4935 20.2632 72.7602C20.7347 73.2575 21.0262 73.3068 21.5342 72.7859C23.864 70.3918 26.2453 68.032 28.603 65.6572Z" fill="#3E322F"/>
<path d="M41.6774 19.5194C42.359 23.4568 40.0935 26.1381 36.0811 26.1402C33.1211 26.1402 30.1612 26.1745 27.2012 26.1209C26.3332 26.1038 26.0417 26.3096 26.0588 27.2226C26.1145 30.2898 26.0867 33.3569 26.0781 36.4262C26.0781 39.5619 23.9348 41.8295 20.9834 41.8617C17.9827 41.8938 15.7343 39.6176 15.7086 36.4647C15.6829 33.3976 15.655 30.3283 15.73 27.2634C15.7557 26.271 15.4342 26.1017 14.5362 26.1188C11.7906 26.1788 9.04278 26.1188 6.29715 26.1531C4.95756 26.1745 3.67155 26.0288 2.44985 25.4522L2.43484 25.508C2.43484 25.3408 2.32767 25.2936 2.18407 25.2808L2.20336 25.3086L1.96331 25.0943C0.981652 24.1276 0.18647 23.0603 0.0342925 21.6285C-0.308643 18.4949 1.83685 15.9465 5.00472 15.7643C5.78704 15.7193 6.57579 15.7536 7.3624 15.7536C9.75437 15.7536 12.1463 15.7129 14.5362 15.7729C15.4407 15.7964 15.7622 15.61 15.7365 14.6198C15.6593 11.767 15.7086 8.90988 15.7086 6.04637C15.7086 3.0714 16.8381 1.17454 19.1165 0.321487C21.3284 -0.507988 23.4461 0.188601 25.3451 2.36838C25.9581 3.53651 26.1038 4.78393 26.0845 6.09138C26.0438 9.0149 26.0674 11.9384 26.0845 14.8619C26.0845 15.2563 25.9238 15.7729 26.6354 15.7643C29.4932 15.7343 32.3424 15.7079 35.183 15.685C35.4616 15.7315 35.7431 15.758 36.0254 15.7643C38.8182 15.6486 40.7 16.9003 41.6774 19.5194Z" fill="#3E322F"/>
<path d="M99.462 20.3811C99.2241 24.3677 97.3358 26.1403 93.3299 26.1403C83.522 26.1403 73.714 26.1231 63.9082 26.1595C62.2921 26.1595 60.7939 25.9452 59.435 25.0429V25.0879C59.4391 25.0558 59.4358 25.0231 59.4255 24.9924C59.4152 24.9618 59.398 24.9338 59.3753 24.9107C59.3526 24.8876 59.325 24.87 59.2945 24.8591C59.264 24.8482 59.2314 24.8443 59.1993 24.8478L59.2185 24.8778L58.9828 24.6013C57.4417 22.623 57.0023 20.499 58.3398 18.2592C59.345 16.5616 60.9332 15.7643 62.9008 15.7643C73.2803 15.7643 83.6598 15.7643 94.0394 15.7643C96.8986 15.7707 98.5104 17.1725 99.462 20.3811Z" fill="#3E322F"/>
<path d="M82.0945 62.7186C84.3943 65.2563 84.6665 68.1477 82.8404 70.4604C82.1422 71.3233 81.2023 71.958 80.141 72.2832C79.0798 72.6084 77.9456 72.6093 76.8839 72.2858C75.8221 71.9623 74.8812 71.3291 74.1816 70.4673C73.4821 69.6056 73.0558 68.5546 72.9574 67.449C72.9274 67.1296 72.9188 66.806 72.8995 66.4888C73.206 65.0784 73.7097 63.7624 74.8736 62.8279C77.0876 61.0511 79.4089 61.1132 81.7859 62.4871L81.8201 62.4657L82.0945 62.7186Z" fill="#3E322F"/>
<path d="M58.9806 24.6013L59.2164 24.8778L58.9806 24.6013Z" fill="#3E322F"/>
<path d="M59.1971 24.8478C59.2293 24.8443 59.2619 24.8482 59.2924 24.8591C59.3229 24.8699 59.3505 24.8876 59.3732 24.9107C59.3959 24.9338 59.413 24.9617 59.4234 24.9924C59.4337 25.0231 59.437 25.0557 59.4329 25.0879L59.1971 24.8478Z" fill="#3E322F"/>
<path d="M1.96973 25.1029L2.20978 25.3172L1.96973 25.1029Z" fill="#3E322F"/>
<path d="M2.19049 25.2808C2.3341 25.2915 2.44126 25.3408 2.44126 25.508L2.19049 25.2808Z" fill="#3E322F"/>
<path d="M6.26071 95.7712C6.38288 95.814 6.50077 95.8612 6.50291 96.0198C6.42146 95.9384 6.34002 95.8548 6.26071 95.7712Z" fill="#3E322F"/>
<path d="M6.48364 95.9898C6.63368 95.9898 6.72584 96.0627 6.72584 96.2256L6.48364 95.9898Z" fill="#3E322F"/>
<path d="M78.4765 85.9332C73.2318 85.9332 67.987 85.9504 62.7422 85.9332C61.5352 85.94 60.3644 85.521 59.4357 84.7499C58.507 83.9788 57.8799 82.905 57.6646 81.7173C57.2209 79.1024 58.5863 76.7426 61.0425 75.8574C61.7224 75.6378 62.4355 75.5392 63.1494 75.5659C73.3875 75.5659 83.627 75.5659 93.8679 75.5659C97.1322 75.5659 99.4406 77.7757 99.4213 80.7913C99.402 83.807 97.0636 85.9354 93.7843 85.9354L78.4765 85.9332Z" fill="#3E322F"/>
<path d="M78.4679 88.936C79.5587 88.9361 80.625 89.2587 81.5329 89.8631C82.4409 90.4675 83.1499 91.3269 83.5708 92.3331C83.9917 93.3393 84.1058 94.4475 83.8987 95.5184C83.6916 96.5893 83.1725 97.575 82.4068 98.3518C81.6411 99.1285 80.6628 99.6615 79.595 99.8839C78.5271 100.106 77.4174 100.008 76.4053 99.6013C75.3932 99.1947 74.5239 98.498 73.9066 97.5988C73.2893 96.6996 72.9516 95.6379 72.936 94.5473C72.9255 93.8142 73.0608 93.0863 73.3341 92.406C73.6074 91.7256 74.0132 91.1064 74.5279 90.5843C75.0427 90.0621 75.6561 89.6475 76.3325 89.3646C77.0089 89.0816 77.7347 88.936 78.4679 88.936Z" fill="#3E322F"/>
<path d="M82.0945 62.7186L81.8201 62.4571C82.0087 62.44 82.0795 62.5514 82.0945 62.7186Z" fill="#3E322F"/>
</g>
<defs>
<clipPath id="clip0_16_2">
<rect width="99.462" height="100" fill="white"/>
</clipPath>
</defs>
</svg>
