<svg width="41" height="28" viewBox="0 0 41 28" fill="none" xmlns="http://www.w3.org/2000/svg">
<path d="M19.1554 18.04C19.1338 19.9514 18.5257 21.8101 17.4133 23.3645C16.3009 24.919 14.7379 26.0943 12.9356 26.7314C11.1334 27.3685 9.179 27.4367 7.33677 26.9267C5.49454 26.4167 3.85341 25.3532 2.63539 23.88C0.854537 21.7169 -0.080073 18.9806 0.00538204 16.18C0.00538204 10.5867 4.7487 5.19333 14.2354 0L15.5954 2.10999C12.3754 4.76999 10.7654 6.91 10.7654 8.55C10.7654 9.06 11.4454 9.54999 12.7654 10.08C14.2644 10.5279 15.6703 11.2427 16.9154 12.19C18.4087 13.4433 19.1554 15.3933 19.1554 18.04Z" fill="#231F20"/>
<path d="M40.8754 18.04C40.9205 20.463 40.0077 22.806 38.3354 24.56C37.4106 25.4739 36.306 26.1855 35.0915 26.6498C33.8771 27.114 32.5794 27.3207 31.2808 27.2568C29.9823 27.1928 28.7112 26.8596 27.5482 26.2783C26.3853 25.697 25.3559 24.8803 24.5254 23.88C22.6958 21.7397 21.7296 18.9944 21.8154 16.18C21.8154 10.5867 26.5587 5.19333 36.0454 0L37.5654 2.10999C34.2354 4.76999 32.5654 6.91 32.5654 8.55C32.5654 9.06 33.2954 9.54999 34.7654 10.08C36.2349 10.5402 37.6124 11.2543 38.8354 12.19C40.1954 13.4433 40.8754 15.3933 40.8754 18.04Z" fill="#231F20"/>
</svg>
