<svg width="91" height="100" viewBox="0 0 91 100" fill="none" xmlns="http://www.w3.org/2000/svg">
<path fill-rule="evenodd" clip-rule="evenodd" d="M44.4669 0.0654595C41.3897 0.616871 37.9756 3.34359 35.3128 7.37642C33.3113 10.4075 31.7748 13.7405 30.1145 18.6526C29.7062 19.8605 29.3349 20.8909 29.2895 20.9423C29.2406 20.9977 28.3823 20.862 27.1828 20.6094C23.3234 19.7967 20.8099 19.4915 17.2304 19.4012C13.5111 19.3074 10.9095 19.6123 8.65621 20.406C5.38901 21.5569 3.05684 23.6514 2.08651 26.3063C1.66022 27.4726 1.44621 28.8104 1.49695 29.9914C1.55802 31.4136 1.85388 31.8301 2.80283 31.8301C3.62738 31.8301 4.04241 31.1446 4.22901 29.475C4.47147 27.3053 4.88906 26.3467 6.11791 25.1392C9.19431 22.1161 15.5304 21.3659 24.5961 22.9514C26.911 23.3562 28.4836 23.8323 28.4836 24.1282C28.4836 24.2044 28.2974 25.2215 28.0698 26.3885C27.4799 29.4133 27.1047 31.7455 26.6441 35.2521L26.2415 38.3167L25.6266 38.8985C25.2884 39.2185 24.4463 39.9052 23.7553 40.4245C21.8875 41.8282 19.2981 43.9279 16.7964 46.0676C15.5731 47.1139 14.5547 47.97 14.5334 47.97C14.512 47.97 13.9723 47.3839 13.3338 46.6675C10.8805 43.9149 9.94429 43.0621 9.38286 43.069C8.99104 43.0738 8.36578 43.4494 8.23841 43.7564C7.94317 44.468 8.39636 45.2251 10.7786 48.0005C11.6826 49.0537 12.4222 49.9633 12.4222 50.0221C12.4222 50.0807 11.9713 50.6428 11.4202 51.2712C6.57765 56.7919 3.88906 60.8752 2.41173 64.953C1.64385 67.0723 1.63342 67.1404 1.63127 70.0346C1.62963 72.3261 1.65265 72.7071 1.82278 73.2013C2.11843 74.06 2.73173 75.228 3.24436 75.9083C4.64661 77.7692 7.05151 79.3353 8.5582 79.3685C9.10071 79.3805 9.1713 79.3545 9.50756 79.0191C10.2591 78.2697 9.9891 77.4717 8.7491 76.7766C6.55524 75.5469 5.60149 74.6905 4.95801 73.3722C4.38205 72.1926 4.19904 71.1647 4.26492 69.4811C4.34062 67.5479 4.77397 66.1981 6.29151 63.1686C7.90061 59.9565 10.2845 56.7178 14.0874 52.5775L14.4998 52.1286L14.825 52.3035C15.0038 52.3997 15.7885 53.0538 16.5686 53.7571C18.9515 55.9055 20.7478 57.3682 24.1358 59.9187C25.2048 60.7234 26.0921 61.3916 26.1075 61.4034C26.123 61.4152 26.3418 62.9232 26.5938 64.7543C27.0517 68.0826 27.3285 69.7825 28.0156 73.487C28.3492 75.2859 28.4608 76.2658 28.3319 76.2658C28.3046 76.2658 27.7722 76.4044 27.1485 76.5736C25.8444 76.9278 25.3173 77.1699 25.015 77.5537C24.5886 78.0949 24.8577 79.2018 25.4724 79.4351C25.917 79.6038 26.8206 79.5464 28.049 79.2713C28.6956 79.1266 29.2594 79.0461 29.3018 79.0926C29.3441 79.1391 29.6677 80.0505 30.0207 81.118C32.4654 88.508 35.1346 93.323 38.6299 96.6482C40.3383 98.2733 42.0265 99.2924 43.8288 99.7864C44.4299 99.9513 44.9061 99.9975 46.0283 99.9999C47.7984 100.004 48.6936 99.7945 50.3249 98.9959C51.7147 98.3156 52.8925 97.4338 54.1665 96.1202C57.118 93.0768 59.2839 89.1179 61.7865 82.1923C62.5581 80.057 62.993 79.1261 63.2189 79.1261C63.3039 79.1261 64.5347 79.3526 65.954 79.6297C68.8271 80.1903 70.2206 80.4049 71.9617 80.5551C74.3883 80.7645 79.5427 80.6244 81.2219 80.3037C82.3938 80.0798 84.0868 79.4927 85.2161 78.9185C90.8232 76.068 92.2013 70.5638 89.1026 63.3948C87.5844 59.8821 84.4325 55.3253 80.8176 51.4163L79.5176 50.0105L80.6425 48.8115C83.4055 45.8663 86.468 41.7905 88.0129 39.0022C91.1684 33.3073 91.5872 27.9593 89.1576 24.3867C88.0646 22.7795 85.7069 21.006 84.6591 21.0031C83.9012 21.0008 83.2331 21.7732 83.3533 22.5127C83.4287 22.9763 83.757 23.3151 84.9622 24.1717C86.3874 25.1848 87.0292 25.9912 87.5616 27.4376C87.9379 28.4596 88.0299 30.2969 87.7738 31.6769C87.1547 35.013 84.898 39.3134 81.636 43.3732C80.7304 44.5004 78.0122 47.5598 77.6513 47.8582C77.4981 47.985 77.4388 47.9661 77.1493 47.6985C74.1526 44.9288 69.9169 41.43 67.2558 39.5264L65.9771 38.6115L65.7983 37.1361C65.4736 34.455 64.8969 30.5826 64.5289 28.6123C63.8979 25.2337 63.6847 23.9154 63.7577 23.8446C63.8508 23.7546 64.7567 23.5256 66.324 23.196C68.6749 22.7013 69.1484 22.4093 69.1263 21.4667C69.1191 21.1641 69.0624 20.8214 69 20.705C68.6884 20.1236 67.6901 20.0428 65.7725 20.4436C65.0973 20.5848 64.1871 20.7749 63.75 20.8661C63.3127 20.9573 62.9284 21.0054 62.8959 20.9729C62.8634 20.9405 62.4557 19.819 61.9899 18.4809C60.8196 15.1188 60.1191 13.4145 58.9535 11.0934C57.2894 7.77951 55.7753 5.56426 53.8543 3.63278C51.4081 1.17319 49.1491 0.0985565 46.2329 0.00733551C45.5577 -0.0138098 44.763 0.0123409 44.4669 0.0654595ZM47.7162 2.9781C50.1357 3.54555 52.4974 5.6659 54.8213 9.35682C55.667 10.7001 57.2587 13.89 57.9561 15.6391C58.6254 17.3176 59.8765 21.0707 59.9133 21.5104L59.9413 21.8432L57.1791 22.803C53.7068 24.0096 50.9205 25.0703 48.1992 26.2218L46.0735 27.1212L43.8514 26.1674C41.5538 25.1812 37.5245 23.6424 34.9182 22.7557C32.5197 21.9397 32.299 21.7778 32.402 20.9088C32.461 20.4112 33.3739 17.7473 34.2427 15.537C35.42 12.5421 37.3997 8.98918 39.024 6.95627C40.7037 4.8541 42.6838 3.42378 44.5363 2.97462C45.3133 2.78626 46.9057 2.78799 47.7162 2.9781ZM75.6373 15.9835C74.2864 16.3315 72.8916 17.734 72.3651 19.274C72.0716 20.1324 72.0653 21.3138 72.3496 22.2021C73.0251 24.3126 75.0781 25.733 77.2191 25.5713C79.1417 25.426 81.1518 23.8968 81.6228 22.2211C81.8269 21.495 81.8276 20.1966 81.6244 19.4146C81.2348 17.916 80.5932 17.0654 79.4039 16.4711C78.0383 15.7887 76.9437 15.647 75.6373 15.9835ZM77.8893 18.8539C78.7368 19.2856 79.2389 20.2941 79.0167 21.1182C78.8868 21.6001 78.2409 22.3421 77.7478 22.5757C77.1951 22.8375 76.4655 22.7883 75.9696 22.4557C74.7954 21.6683 74.5452 20.4109 75.3651 19.4179C75.967 18.6886 77.0778 18.4405 77.8893 18.8539ZM33.4963 25.2441C36.055 26.0747 41.2879 28.0461 42.272 28.5502L42.6277 28.7325L42.282 28.9422C42.0918 29.0575 41.0615 29.6223 39.9925 30.1973C36.836 31.8951 31.45 35.0269 29.8703 36.0829C29.5921 36.269 29.3531 36.4098 29.3393 36.3961C29.2117 36.2687 30.1577 30.362 30.7877 27.3528C31.2414 25.1854 31.4188 24.5743 31.5799 24.624C31.6493 24.6455 32.5117 24.9245 33.4963 25.2441ZM60.9056 25.3431C61.4077 26.9662 62.7546 34.6785 62.7546 35.93V36.3414L62.4221 36.1422C62.2392 36.0326 61.376 35.5065 60.5039 34.9731C58.4488 33.716 55.4452 31.9825 52.371 30.2791C50.8622 29.4432 49.9157 28.8597 49.9157 28.7655C49.9157 28.4182 52.5177 27.3619 58.0998 25.443C59.4502 24.9788 60.5883 24.619 60.629 24.6435C60.6697 24.6681 60.7942 24.9829 60.9056 25.3431ZM47.9208 31.1325C51.1814 32.6906 56.9632 36.0444 61.5425 39.0339L63.2459 40.146L63.3097 40.8658C63.6591 44.8132 63.6586 55.2756 63.3087 59.178L63.2426 59.9154L61.3873 61.1275C57.3324 63.7767 53.0696 66.2628 48.7928 68.4726L46.1309 69.848L45.5681 69.5743C41.1537 67.4284 34.8511 63.8379 30.5578 61.0235C29.1863 60.1243 28.9938 59.964 28.9458 59.6811C28.571 57.4751 28.5955 41.7766 28.9759 40.2892C29.0317 40.0711 29.4473 39.757 30.99 38.7673C35.3034 35.9997 41.2033 32.602 44.4937 30.9907C45.5121 30.492 45.7911 30.3966 46.1306 30.431C46.3556 30.4539 47.1613 30.7695 47.9208 31.1325ZM3.25868 33.344C2.54451 33.5905 1.46902 34.38 1.02534 34.9835C-0.161871 36.5985 -0.317574 38.2829 0.555467 40.0663C1.45664 41.907 2.87873 42.7603 5.04558 42.7603C6.26225 42.7603 7.2777 42.3676 8.13744 41.5646C8.76189 40.9813 9.17549 40.3322 9.45835 39.4914C9.64904 38.9247 9.67564 38.6617 9.63943 37.6957C9.60035 36.6496 9.56894 36.5047 9.2246 35.7807C8.60178 34.4712 7.47105 33.5637 6.1001 33.273C5.27821 33.0987 3.86686 33.1339 3.25868 33.344ZM5.34635 35.9716C5.96179 36.1541 6.56148 36.6377 6.75975 37.1115C7.10072 37.9265 6.80598 39.1394 6.14583 39.638C5.15545 40.386 3.85305 40.051 3.03607 38.8382C2.6729 38.2991 2.62503 37.9361 2.84712 37.4053C3.13203 36.7244 4.14758 35.8328 4.65428 35.8185C4.74256 35.816 5.05397 35.8849 5.34635 35.9716ZM44.3403 41.5414C41.5576 42.267 39.3075 44.3255 38.4001 46.9761C37.8256 48.6542 37.7842 50.2567 38.2715 51.9489C38.9364 54.2575 40.5348 56.1703 42.6701 57.2125C43.678 57.7045 44.4088 57.8836 45.6818 57.951C48.4116 58.0953 50.4267 57.3417 52.2798 55.4838C53.0857 54.6756 53.2827 54.4052 53.7378 53.4814C54.4766 51.9819 54.6182 51.3754 54.6187 49.7065C54.619 48.5802 54.577 48.1815 54.3891 47.5308C53.5041 44.4652 50.9907 42.1263 47.8996 41.4919C46.8181 41.27 45.3004 41.2911 44.3403 41.5414ZM25.8237 50.019C25.8237 56.1245 25.7976 57.6713 25.6958 57.6119C24.7461 57.0589 17.7557 51.2068 16.8921 50.2417C16.7105 50.0387 16.7297 50.0147 18.0174 48.837C19.9296 47.0881 25.543 42.3849 25.747 42.3607C25.7891 42.3557 25.8237 45.802 25.8237 50.019ZM69.0154 44.4775C71.2891 46.2935 73.2598 47.977 74.5506 49.2062L75.4516 50.0641L74.0903 51.3099C72.5171 52.7496 69.1608 55.5585 67.6426 56.7058L66.5985 57.4949L66.5119 57.2016C66.3895 56.7878 66.2915 47.2259 66.3835 44.6764L66.4598 42.5577L66.7505 42.7291C66.9104 42.8234 67.9296 43.6101 69.0154 44.4775ZM48.056 44.3613C49.6929 44.842 51.1892 46.4566 51.656 48.2461C52.4269 51.2017 50.4431 54.5037 47.5322 55.1098C45.6985 55.4917 43.6923 54.8812 42.3343 53.5284C40.6807 51.8811 40.3032 49.1535 41.4236 46.9485C42.0596 45.6969 43.8721 44.4137 45.3122 44.1953C46.0785 44.0791 47.3588 44.1566 48.056 44.3613ZM80.2951 55.1205C83.1264 58.3982 84.785 60.8306 86.2304 63.8252C88.1704 67.8442 88.5173 70.8445 87.3264 73.3035C86.8373 74.3134 85.6487 75.5147 84.4986 76.1614C83.4417 76.7559 81.747 77.3143 80.1458 77.596C78.3495 77.9121 74.8247 77.9852 72.4221 77.7564C69.6613 77.4935 66.2064 76.9115 64.199 76.3714L63.7509 76.2508L63.8204 75.5722C63.8588 75.199 64.0498 74.0417 64.2451 73.0005C64.9267 69.3646 65.3063 66.8417 65.8294 62.4691L65.9464 61.4923L67.8543 60.0498C70.4973 58.0515 73.3054 55.7496 75.5422 53.7478L77.4348 52.0542L78.4458 53.1021C79.0019 53.6785 79.834 54.5868 80.2951 55.1205ZM32.8314 65.7617C36.2843 67.8366 38.4084 69.0481 40.7597 70.2838C41.6881 70.7716 42.49 71.2124 42.5415 71.2633C42.6572 71.3774 41.8639 71.7385 39.5248 72.6364C36.1087 73.9477 32.8064 75.0539 31.8531 75.2061C31.5293 75.2578 31.4513 75.2328 31.3505 75.0447C31.046 74.4766 29.5641 66.3795 29.4367 64.5881L29.3704 63.6556L29.6175 63.8173C29.7534 63.9062 31.1997 64.7812 32.8314 65.7617ZM62.7546 64.2522C62.7546 65.3581 61.2447 73.9784 60.8961 74.8626C60.6525 75.4808 60.2225 75.407 56.633 74.1307C52.0065 72.4855 49.9157 71.5981 49.9157 71.2793C49.9157 71.2054 51.353 70.3471 53.1097 69.3719C56.3521 67.5719 58.4599 66.3347 61.0578 64.7067C61.8503 64.21 62.5564 63.8036 62.6267 63.8035C62.7096 63.8034 62.7546 63.9612 62.7546 64.2522ZM47.5454 73.5695C50.8433 74.9708 54.8026 76.4703 58.0105 77.5331L60.0695 78.2153L59.5592 79.871C57.9469 85.1018 55.9868 89.2798 53.694 92.3725C52.8103 93.5644 50.6749 95.6482 49.7623 96.209C48.4578 97.0107 47.9157 97.1517 46.1306 97.1532C44.7179 97.1544 44.536 97.1327 43.8396 96.8793C42.5166 96.398 41.5388 95.7364 40.2479 94.4487C38.5852 92.7902 37.3749 91.0242 35.9073 88.1154C34.5607 85.4464 32.0418 78.8825 32.2031 78.4628C32.2621 78.3095 33.5517 77.7942 36.3096 76.8221C38.2741 76.1297 41.7635 74.7488 44.3914 73.6238C45.1792 73.2866 45.908 73.0076 46.0109 73.0038C46.1139 73.0001 46.8044 73.2546 47.5454 73.5695ZM17.2816 74.5417C15.9832 74.7248 14.5407 75.7282 13.8613 76.9208C13.0465 78.3512 13.0043 80.3182 13.7568 81.791C14.0679 82.4 14.9274 83.2581 15.5626 83.5939C17.2953 84.5098 19.1449 84.4429 20.6967 83.4081C21.49 82.8792 21.9559 82.3334 22.4289 81.3787C22.8003 80.629 22.8058 80.5997 22.8058 79.3868C22.8058 78.1796 22.7986 78.1403 22.4304 77.3705C21.4609 75.3434 19.4464 74.2366 17.2816 74.5417ZM18.7649 77.5002C19.6435 77.898 20.0948 78.5537 20.0948 79.4325C20.0948 80.602 19.2693 81.3938 18.05 81.3938C15.6739 81.3938 15.1539 78.2942 17.3839 77.4228C17.8403 77.2444 18.2508 77.2674 18.7649 77.5002Z" fill="#3E322F"/>
</svg>
