<svg width="388" height="388" viewBox="0 0 388 388" fill="none" xmlns="http://www.w3.org/2000/svg">
<g clip-path="url(#clip0_16_26)">
<path d="M0 194C-0.0239868 215.214 3.43716 236.287 10.2452 256.378C10.6356 257.526 11.0355 258.671 11.4449 259.811C18.6544 279.748 29.0797 298.371 42.3069 314.94C46.2558 319.893 50.44 324.642 54.8595 329.186C59.2791 333.737 63.9186 338.067 68.7782 342.175C95.8845 365.162 128.812 380.217 163.93 385.681H163.936C168.413 386.376 172.934 386.917 177.499 387.306C182.934 387.765 188.434 387.996 194 388C219.882 388.034 245.507 382.872 269.357 372.821C293.207 362.769 314.797 348.033 332.848 329.484C334.116 328.187 335.366 326.871 336.596 325.535C339.661 322.212 342.609 318.786 345.441 315.256C347.03 313.27 348.582 311.253 350.095 309.206C359.417 296.613 367.173 282.932 373.192 268.466C375.759 262.305 378 256.013 379.907 249.617C380.045 249.164 380.177 248.71 380.309 248.257C380.596 247.281 380.873 246.3 381.141 245.312C385.707 228.591 388.014 211.334 388 194C388 86.8581 301.142 0 194 0C86.8581 0 0 86.8581 0 194Z" fill="#F2F2F2"/>
<path d="M305.723 115.959C306.024 117.783 305.921 119.65 305.421 121.429C304.922 123.209 304.038 124.857 302.833 126.258C301.628 127.659 300.13 128.779 298.445 129.539C296.76 130.298 294.929 130.679 293.081 130.654L262.113 220.763L242.354 207.183L280.499 116.934C280.746 113.832 282.122 110.929 284.367 108.774C286.611 106.619 289.569 105.363 292.678 105.243C295.787 105.122 298.833 106.147 301.237 108.122C303.641 110.097 305.238 112.886 305.723 115.959Z" fill="#A0616A"/>
<path d="M144.091 146.447C157.843 162.093 191.753 189.667 219.688 208.653C225.726 212.757 231.488 216.453 236.706 219.547C240.23 221.636 243.507 223.444 246.457 224.919C248.437 225.906 250.6 226.473 252.809 226.585C255.018 226.696 257.227 226.351 259.297 225.57C261.366 224.788 263.252 223.588 264.836 222.044C266.421 220.5 267.669 218.646 268.503 216.597L287.846 169.802L281.153 165.365L264.652 154.419L260.904 151.94L245.43 188.794L229.112 175.696L218.982 167.563L172.8 130.502L168.817 129.32L159.525 138.389L152.953 144.805L146.771 145.879C145.847 146.039 144.952 146.229 144.091 146.447Z" fill="#EF5744"/>
<path d="M20.7087 275.022C19.7501 276.239 18.7572 277.45 17.7642 278.667C21.1846 285.69 25.0296 292.498 29.2779 299.054C29.5936 298.83 29.9093 298.606 30.225 298.382C30.2749 298.355 30.3228 298.325 30.3685 298.291C31.5451 297.453 32.7275 296.626 33.9041 295.788V295.782C34.8748 292.479 35.4168 289.065 35.5169 285.623C34.9101 285.484 34.3607 285.162 33.9433 284.7C33.5259 284.238 33.2607 283.658 33.1836 283.041C33.1065 282.423 33.2213 281.796 33.5124 281.246C33.8036 280.695 34.2569 280.248 34.811 279.964C34.9659 279.694 35.075 279.499 35.23 279.224C35.2242 279.155 35.2127 279.08 35.207 279.011C34.3059 271.842 25.1684 269.34 20.7087 275.022Z" fill="white"/>
<path d="M10.406 250.456C9.71724 252.351 9.08969 254.266 8.52338 256.202C8.9137 257.35 9.31358 258.494 9.72298 259.634C9.87795 259.032 10.0387 258.429 10.2051 257.826C11.1388 254.475 12.2597 251.179 13.5628 247.954C14.6304 245.308 15.8127 242.718 17.1099 240.183C24.1634 226.411 34.3846 214.51 46.9331 205.458C52.119 204.258 56.8125 201.498 60.3811 197.548C61.6682 196.129 62.7449 194.533 63.5781 192.807C63.05 192.733 62.522 192.63 62.0054 192.52C61.8447 192.486 61.6782 192.446 61.5175 192.411L61.4544 192.4C60.8897 192.269 60.3748 191.978 59.9718 191.561C59.5687 191.144 59.2946 190.62 59.1824 190.051C59.0702 189.483 59.1248 188.894 59.3395 188.355C59.5541 187.817 59.9198 187.352 60.3925 187.016C60.6852 186.804 60.9837 186.597 61.2765 186.391C61.7241 186.063 62.1776 185.753 62.631 185.432C62.6788 185.402 62.7248 185.37 62.7687 185.334C63.2853 184.967 63.8019 184.611 64.3127 184.238C63.9164 182.959 63.231 181.789 62.3096 180.817C59.1011 177.506 53.3729 177.58 49.6307 180.278C45.8827 182.975 44.0001 187.699 43.7591 192.302C43.5467 196.246 44.3962 200.149 45.5154 203.954C45.2341 204.161 44.9414 204.356 44.6602 204.568C39.4929 208.398 34.7137 212.725 30.3914 217.488C32.8882 211.565 33.795 203.839 33.1465 198.518C32.406 192.457 29.4616 186.701 27.051 180.967C24.1639 174.079 14.3147 173.987 11.5367 180.921C11.508 180.99 11.4793 181.053 11.4564 181.122C11.9213 181.586 12.3689 182.069 12.7994 182.568C13.3399 183.197 13.6778 183.975 13.7688 184.799C13.8599 185.624 13.6998 186.457 13.3096 187.189C12.9194 187.921 12.3173 188.518 11.5821 188.902C10.8469 189.286 10.0129 189.439 9.18919 189.341L9.10308 189.329C8.74513 191.375 8.54176 193.446 8.49469 195.522C8.42346 201.332 9.55314 207.095 11.8129 212.448C14.0727 217.801 17.4139 222.63 21.627 226.631C21.9025 226.89 22.1723 227.142 22.4535 227.389C19.7946 231.17 17.4067 235.134 15.3076 239.253C13.4444 242.883 11.8074 246.624 10.406 250.456Z" fill="white"/>
<path d="M121 196.612L122.733 315.658L262.758 311.64L240.396 262.279C240.557 260.695 230.581 249.577 230.639 247.93C230.811 243.103 227.207 238.631 226.621 233.581C225.427 223.163 232.263 183.824 229.112 175.696C227.77 172.067 226.05 168.589 223.981 165.319C222.19 162.61 220.353 160.785 218.597 160.125L213.42 148.06L208.828 141.172L172.8 130.502L168.817 129.32L159.525 138.389L152.953 144.806L146.771 145.879C145.847 146.04 144.952 146.229 144.091 146.447C139.944 147.403 136.079 149.318 132.807 152.037C122.016 161.204 120.759 178.446 121 196.612Z" fill="#EF5744"/>
<path d="M40.585 314.763C44.5339 319.717 48.7181 324.465 53.1376 329.009L68.2788 329.021L149.707 329.113L164.366 329.13L174.112 329.141L188.61 329.153L199.763 329.164L220.362 329.187L232.513 329.204L258.1 329.227L270.314 329.245L304.161 329.279L325.421 329.302L331.126 329.308C332.394 328.01 333.644 326.694 334.874 325.359C337.939 322.036 340.887 318.609 343.719 315.079L331.906 315.068L323.859 315.062L305.229 315.039L269.275 315.004L257.125 314.993L252.211 314.987H252.194L248.337 314.982L246.61 314.976L242.184 314.97H240.313L227.192 314.959L198.89 314.924L186.435 314.913L174.508 314.901L163.327 314.89L147.285 314.872L61.6036 314.786L40.585 314.763Z" fill="#CCCCCC"/>
<path d="M234.312 136.013L234.343 136.016C235.999 136.171 237.648 135.661 238.928 134.599C240.208 133.537 241.013 132.01 241.167 130.354L244.431 95.5148C245.022 89.2736 244.352 82.9772 242.461 77.0002C238.754 65.3346 230.688 55.5496 219.944 49.6843C214.397 46.6638 208.295 44.7978 202.007 44.1987C176.282 41.7479 166.881 47.1056 150.991 86.34C135.1 125.574 147.722 121.232 147.722 121.232C147.642 122.072 147.732 122.919 147.987 123.723C148.487 125.292 149.574 126.606 151.021 127.393C151.763 127.795 152.579 128.044 153.419 128.125C183.832 135.856 214.519 143.993 234.317 136.014L234.312 136.013Z" fill="#2F2E41"/>
<path d="M177.707 77.2101C173.889 82.8586 171.831 89.5117 171.792 96.3291C171.754 103.147 173.736 109.823 177.489 115.514C181.243 121.205 186.598 125.657 192.88 128.306C199.162 130.956 206.088 131.684 212.783 130.4C217.215 129.564 221.437 127.857 225.205 125.377C228.973 122.898 232.211 119.696 234.732 115.956C238.542 110.309 240.594 103.661 240.631 96.8496C240.667 90.0382 238.686 83.3684 234.938 77.6813C231.189 71.9942 225.84 67.5443 219.566 64.8927C213.292 62.2411 206.373 61.5066 199.682 62.7817C195.246 63.6127 191.02 65.3161 187.247 67.7931C183.475 70.2701 180.232 73.4714 177.706 77.2114L177.707 77.2101Z" fill="#9E616A"/>
<path d="M255.216 99.3854C255.683 94.4493 255.152 89.4697 253.657 84.7425C253.31 73.1787 249.955 62.7047 235.851 63.1443C231.491 60.7726 226.699 59.3021 221.759 58.8202L214.789 58.132C214.711 58.1242 214.633 58.1166 214.554 58.1093C209.726 57.6599 204.856 58.166 200.223 59.5987C195.589 61.0314 191.284 63.3627 187.551 66.4593C183.819 69.556 180.733 73.3575 178.47 77.6467C176.207 81.9359 174.811 86.6289 174.362 91.4577L174.296 92.1555L189.042 93.5971L195.389 80.0161L195.075 94.1898L202.691 94.9373L205.892 88.0853L205.736 95.2316C217.043 105.191 234.191 105.713 255.144 100.084L255.216 99.3854Z" fill="#2F2E41"/>
<path d="M208.048 132.445C208.173 133.593 207.974 134.753 207.473 135.794C207.22 136.326 206.894 136.821 206.505 137.264C206.171 137.64 205.794 137.976 205.382 138.265C204.16 139.115 202.675 139.503 201.194 139.357C201.102 139.348 201.01 139.336 200.918 139.324C200.826 139.311 200.734 139.295 200.642 139.278C200.55 139.262 200.458 139.243 200.367 139.221C200.276 139.199 200.184 139.176 200.093 139.151L194.946 137.709L189.178 121.627L187.856 135.739L164.454 129.223L170.065 69.3385L209.952 73.2688L208.858 74.3221C205.223 77.8599 202.635 82.3319 201.378 87.2458C200.131 92.2254 199.746 97.3819 200.24 102.492C200.702 107.658 201.658 112.769 203.097 117.752C204.349 122.165 205.854 126.503 207.605 130.743C207.832 131.287 207.981 131.86 208.048 132.445Z" fill="#2F2E41"/>
<path d="M202.729 321.253C203.415 321.253 204.092 321.099 204.711 320.805L315.211 323.624C316.059 323.222 316.765 322.573 317.236 321.762C317.707 320.95 317.921 320.015 317.849 319.08C317.778 318.144 317.424 317.252 316.835 316.522C316.246 315.792 315.45 315.257 314.551 314.989L242.259 293.434C241.51 293.211 240.717 293.18 239.954 293.346L128.13 306.975C127.141 307.189 126.249 307.721 125.59 308.489C124.931 309.258 124.541 310.221 124.481 311.232C124.421 312.242 124.693 313.245 125.256 314.086C125.819 314.928 126.642 315.562 127.599 315.892L201.215 320.998C201.702 321.167 202.214 321.253 202.729 321.253Z" fill="#71B7B5"/>
<path d="M198.665 313.561C199.164 313.561 199.655 313.433 200.09 313.19L289.832 317.383C290.341 317.097 290.753 316.664 291.013 316.141C291.274 315.618 291.37 315.028 291.291 314.45C291.211 313.871 290.959 313.329 290.568 312.896C290.176 312.462 289.663 312.156 289.095 312.018L256.607 304.133C256.1 304.011 255.569 304.026 255.07 304.178L171.642 304.078C171.048 304.26 170.528 304.627 170.158 305.126C169.788 305.624 169.587 306.228 169.585 306.85C169.582 307.471 169.779 308.076 170.146 308.577C170.513 309.079 171.03 309.45 171.623 309.635L197.797 313.429C198.078 313.516 198.371 313.561 198.665 313.561Z" fill="#2F2E41"/>
<path d="M208.111 308.778C206.558 309.779 204.804 310.428 202.973 310.678C201.141 310.928 199.278 310.774 197.513 310.226C195.748 309.678 194.124 308.75 192.757 307.507C191.389 306.263 190.311 304.735 189.598 303.03L94.6092 310.492L99.2009 286.959L197.175 286.026C200.119 285.018 203.33 285.125 206.201 286.326C209.071 287.527 211.401 289.74 212.749 292.544C214.097 295.349 214.369 298.551 213.514 301.542C212.66 304.534 210.737 307.109 208.111 308.778Z" fill="#A0616A"/>
<path d="M152.006 155.521C152.006 155.521 137.657 144.042 120.438 164.705C108.825 178.64 86.4248 262.878 84.5676 297.786C84.4502 299.995 84.7903 302.204 85.5666 304.275C86.3429 306.346 87.5387 308.235 89.079 309.822C90.6193 311.41 92.4709 312.662 94.5178 313.501C96.5647 314.339 98.7627 314.746 100.974 314.695L151.604 313.814L157.266 281.987L117.293 282.461L152.006 155.521Z" fill="#EF5744"/>
<path d="M208.875 321.266C210.612 321.265 212.331 320.916 213.932 320.242L316.351 322.579C319.054 321.452 321.298 319.446 322.72 316.885C324.141 314.325 324.658 311.36 324.186 308.47L327.992 218.523C327.487 215.31 325.796 212.403 323.253 210.376C320.709 208.35 317.498 207.35 314.254 207.575L219.169 211.519C217.344 211.639 215.564 212.141 213.946 212.992C212.327 213.844 210.905 215.027 209.773 216.463C208.641 217.9 207.823 219.558 207.373 221.331C206.923 223.104 206.851 224.951 207.161 226.754L196.02 310.42C196.544 313.452 198.12 316.201 200.472 318.185C202.823 320.169 205.798 321.26 208.875 321.266Z" fill="#71B7B5"/>
<path d="M286.646 53.4763L329.389 53.3557C330.535 53.3544 331.635 53.8073 332.447 54.6153C333.259 55.4233 333.718 56.5205 333.723 57.6662L333.878 114.265C333.88 115.409 333.428 116.508 332.621 117.32C331.814 118.131 330.718 118.589 329.573 118.593L305.863 118.661L286.824 118.713C285.679 118.715 284.579 118.262 283.768 117.454C282.956 116.646 282.499 115.548 282.497 114.403L282.485 111.056L282.336 57.8097C282.334 56.6637 282.786 55.5636 283.594 54.751C284.403 53.9385 285.5 53.48 286.646 53.4763Z" fill="#E6E6E6"/>
<path d="M289.66 56.8569L326.393 56.7536C327.466 56.7523 328.495 57.1762 329.256 57.9325C330.017 58.6889 330.447 59.7159 330.451 60.7886L330.555 97.1779C330.562 101.957 328.673 106.543 325.303 109.932C321.933 113.32 317.357 115.233 312.578 115.252L305.599 115.269L289.82 115.315C288.747 115.318 287.717 114.894 286.956 114.137C286.196 113.381 285.766 112.353 285.762 111.28L285.751 107.618L285.625 60.9148C285.622 59.8419 286.046 58.8119 286.802 58.051C287.559 57.2901 288.587 56.8607 289.66 56.8569Z" fill="white"/>
<path d="M293.786 81.721H322.427C322.653 81.721 322.877 81.7655 323.085 81.8519C323.294 81.9383 323.483 82.0649 323.643 82.2245C323.802 82.3841 323.929 82.5736 324.015 82.7822C324.102 82.9907 324.146 83.2143 324.146 83.44C324.146 83.6658 324.102 83.8893 324.015 84.0979C323.929 84.3064 323.802 84.4959 323.643 84.6556C323.483 84.8152 323.294 84.9418 323.085 85.0282C322.877 85.1146 322.653 85.159 322.427 85.159H293.786C293.331 85.159 292.893 84.9779 292.571 84.6556C292.248 84.3332 292.067 83.8959 292.067 83.44C292.067 82.9841 292.248 82.5469 292.571 82.2245C292.893 81.9021 293.331 81.721 293.786 81.721Z" fill="#EF5744"/>
<path d="M316.131 72.2966H322.427C322.883 72.2966 323.32 72.4777 323.643 72.8001C323.965 73.1224 324.146 73.5597 324.146 74.0156C324.146 74.4715 323.965 74.9087 323.643 75.2311C323.32 75.5535 322.883 75.7346 322.427 75.7346H316.131C315.675 75.7346 315.238 75.5535 314.915 75.2311C314.593 74.9087 314.412 74.4715 314.412 74.0156C314.412 73.5597 314.593 73.1224 314.915 72.8001C315.238 72.4777 315.675 72.2966 316.131 72.2966Z" fill="#EF5744"/>
<path d="M293.786 96.8336H322.427C322.883 96.8336 323.32 97.0147 323.643 97.3371C323.965 97.6594 324.146 98.0967 324.146 98.5526C324.146 99.0085 323.965 99.4457 323.643 99.7681C323.32 100.09 322.883 100.272 322.427 100.272H293.786C293.331 100.272 292.893 100.09 292.571 99.7681C292.248 99.4457 292.067 99.0085 292.067 98.5526C292.067 98.0967 292.248 97.6594 292.571 97.3371C292.893 97.0147 293.331 96.8336 293.786 96.8336Z" fill="#EF5744"/>
<path d="M293.786 89.2802H322.427C322.882 89.2802 323.319 89.461 323.641 89.7828C323.963 90.1046 324.143 90.5411 324.143 90.9963C324.143 91.4515 323.963 91.888 323.641 92.2098C323.319 92.5316 322.882 92.7125 322.427 92.7125H293.786C293.331 92.7125 292.895 92.5316 292.573 92.2098C292.251 91.888 292.07 91.4515 292.07 90.9963C292.07 90.5411 292.251 90.1046 292.573 89.7828C292.895 89.461 293.331 89.2802 293.786 89.2802Z" fill="#EF5744"/>
<path d="M299.352 78.3751C301.363 78.3751 303.329 77.7787 305.001 76.6614C306.673 75.544 307.977 73.9559 308.746 72.0978C309.516 70.2398 309.717 68.1952 309.325 66.2227C308.933 64.2502 307.964 62.4383 306.542 61.0162C305.12 59.5941 303.308 58.6257 301.336 58.2333C299.363 57.8409 297.318 58.0423 295.46 58.8119C293.602 59.5816 292.014 60.8849 290.897 62.5571C289.78 64.2293 289.183 66.1953 289.183 68.2065C289.186 70.9024 290.259 73.4871 292.165 75.3934C294.071 77.2997 296.656 78.372 299.352 78.3751ZM299.352 58.7446C301.223 58.7446 303.053 59.2995 304.609 60.3392C306.165 61.3789 307.377 62.8566 308.093 64.5855C308.81 66.3145 308.997 68.217 308.632 70.0524C308.267 71.8878 307.366 73.5738 306.042 74.8971C304.719 76.2204 303.033 77.1215 301.198 77.4866C299.362 77.8517 297.46 77.6643 295.731 76.9482C294.002 76.232 292.524 75.0193 291.484 73.4633C290.445 71.9073 289.89 70.0779 289.89 68.2065C289.893 65.6979 290.89 63.2929 292.664 61.5191C294.438 59.7452 296.843 58.7474 299.352 58.7446Z" fill="#EF5744"/>
<path d="M295.081 72.1451C295.784 68.5189 297.246 65.0826 299.373 62.0628C299.421 61.9845 299.489 61.9199 299.569 61.875C299.649 61.8301 299.739 61.8066 299.831 61.8066C299.923 61.8066 300.013 61.8301 300.093 61.875C300.173 61.9199 300.241 61.9845 300.289 62.0628C302.141 65.3029 303.325 68.8814 303.771 72.5869C303.853 73.2624 302.793 73.2565 302.711 72.5869C302.562 71.386 302.33 70.197 302.016 69.0283C301.975 69.0203 301.936 69.0081 301.898 68.992C300.488 68.2844 298.896 68.0251 297.335 68.249C297.321 68.251 297.308 68.2481 297.294 68.2494C296.779 69.6054 296.38 71.003 296.103 72.4269C295.974 73.096 294.952 72.8127 295.081 72.1451ZM301.634 67.7284C301.148 66.219 300.529 64.7558 299.784 63.3559C298.995 64.5606 298.31 65.8301 297.737 67.1508C299.063 67.0511 300.394 67.2484 301.634 67.7284Z" fill="#EF5744"/>
</g>
<defs>
<clipPath id="clip0_16_26">
<rect width="388" height="388" fill="white" transform="matrix(-1 0 0 1 388 0)"/>
</clipPath>
</defs>
</svg>
