<svg width="102" height="100" viewBox="0 0 102 100" fill="none" xmlns="http://www.w3.org/2000/svg">
<path fill-rule="evenodd" clip-rule="evenodd" d="M20.4013 0.157782C18.0141 0.724221 16.5526 3.59262 17.4978 5.8564C18.7009 8.73806 22.4215 9.39254 24.5937 7.10482L25.1745 6.49308H31.3665H37.5585V17.5548V28.6166L34.5429 28.6875C31.7288 28.7538 31.4598 28.7937 30.5174 29.2877C29.9617 29.579 29.2372 30.0447 28.9067 30.3229L28.3062 30.8284H23.144H17.9817V27.498V24.1678L18.7739 23.5308C21.0157 21.7284 20.9275 18.3232 18.5965 16.684C17.83 16.1451 17.6036 16.0887 16.202 16.0887C14.8003 16.0887 14.5739 16.1451 13.8075 16.684C11.5383 18.2797 11.3973 21.7456 13.532 23.4496L14.2245 24.0026V28.5136C14.2245 33.2912 14.3285 33.916 15.2024 34.3837C15.4375 34.5098 17.711 34.5875 21.1537 34.5875C26.1525 34.5875 26.7126 34.6196 26.6048 34.9005C26.5387 35.0726 26.4848 37.8326 26.4848 41.0338V46.8541H17.2225H7.96012L7.7339 46.3571C7.42957 45.689 5.90672 44.7504 4.87667 44.5962C3.19642 44.3448 1.25772 45.3516 0.463571 46.8881C-0.969494 49.661 1.09557 52.9874 4.25001 52.9874C5.60833 52.9874 6.4794 52.5984 7.39714 51.5821L8.0934 50.811H17.289H26.4848V55.3615V59.9121H15.3214C7.08766 59.9121 4.02201 59.9742 3.63957 60.1485C2.58756 60.6281 2.5575 60.8645 2.5575 68.6836V75.8922L2.07204 76.2106C-1.56352 78.5939 -0.0559076 84.0495 4.23834 84.0495C6.61149 84.0495 8.48988 82.1901 8.48988 79.8409C8.48988 78.767 7.67635 77.0787 6.88814 76.5172L6.30914 76.1047L6.36134 69.9374L6.41355 63.7701L16.4227 63.7188L26.4318 63.6676L26.5235 66.6866C26.6081 69.4663 26.6598 69.8041 27.1733 70.9484C27.8727 72.5073 29.5633 74.1423 31.0163 74.665L32.0216 75.0267V78.45V81.8732L28.6105 81.8655L25.1994 81.858L24.8015 81.225C23.8116 79.6508 21.1612 79.0992 19.3746 80.0957C17.0228 81.4075 16.4758 84.5511 18.248 86.5707C19.9253 88.4817 23.0954 88.4683 24.6305 86.5436L25.1994 85.8302H29.6056C34.2872 85.8302 35.1239 85.6954 35.5652 84.8706C35.7009 84.617 35.7788 82.7702 35.7788 79.8088V75.1464H42.0078H48.2368L48.2293 83.5054L48.2218 91.8645L47.4666 92.3866C45.2236 93.9372 45.3402 97.6191 47.6827 99.2049C49.4731 100.417 51.463 100.23 52.9867 98.7051C54.7877 96.9031 54.7749 94.5289 52.9538 92.7072L51.994 91.7468V83.4429V75.139L56.5916 75.1923L61.1892 75.2453L61.2924 85.9291C61.3491 91.8052 61.4158 96.6364 61.4407 96.6653C61.4654 96.694 61.7749 96.894 62.1285 97.1097C62.7381 97.4816 63.1423 97.5018 69.9956 97.5024L77.2202 97.5032L77.575 98.1043C78.0298 98.8747 79.2236 99.6637 80.2999 99.9057C83.1769 100.552 85.8888 97.7661 85.2335 94.8366C84.9553 93.5921 84.047 92.4383 82.9553 91.9423C81.2629 91.1732 78.8162 91.6686 77.8504 92.9756L77.4288 93.5462H71.237H65.0452V84.3675V75.1887L68.0608 75.1096C70.8576 75.0362 71.1577 74.991 72.1967 74.4885C72.8127 74.1904 73.6936 73.5711 74.1542 73.1121C74.9809 72.2882 76.1186 70.23 76.1188 69.5572C76.119 69.2402 76.4203 69.2109 79.6784 69.2109H83.2378V72.5413V75.8715L82.4457 76.5085C80.2038 78.3109 80.292 81.7161 82.623 83.3553C83.3895 83.8942 83.6159 83.9506 85.0175 83.9506C86.4192 83.9506 86.6456 83.8942 87.4121 83.3553C89.6812 81.7596 89.8222 78.2937 87.6875 76.5897L86.995 76.0367V71.5257C86.995 66.7481 86.891 66.1233 86.0172 65.6556C85.7872 65.5323 83.7947 65.4518 80.9768 65.4518H76.3167V59.3185V53.1852H84.788H93.2594L93.4856 53.6822C93.7899 54.3503 95.3128 55.2889 96.3428 55.4431C98.0231 55.6945 99.9618 54.6877 100.756 53.1512C102.189 50.3783 100.124 47.0519 96.9695 47.0519C95.6112 47.0519 94.7401 47.4409 93.8224 48.4572L93.1261 49.2283H84.7215H76.3167V44.6778V40.1273H86.6891C94.3096 40.1273 97.1991 40.0645 97.5799 39.8908C98.632 39.4112 98.662 39.1748 98.662 31.3557V24.1471L99.1475 23.8287C102.783 21.4454 101.275 15.9898 96.9812 15.9898C94.608 15.9898 92.7296 17.8492 92.7296 20.1984C92.7296 21.2723 93.5432 22.9606 94.3314 23.5221L94.9104 23.9346L94.8582 30.1019L94.806 36.2692L85.5896 36.3207L76.3735 36.3721L76.2493 35.2325C76.0703 33.5886 75.7967 32.7626 75.0755 31.689C74.2641 30.4812 72.7972 29.3746 71.4429 28.9482L70.3844 28.6153V23.3907V18.1661H73.7365H77.0889L78.0383 19.116C79.6373 20.7158 81.6584 20.951 83.473 19.7485C85.9436 18.1113 85.9533 14.48 83.4919 12.751C81.8243 11.5796 79.4115 11.8781 78.0106 13.4292L77.3064 14.2092L72.9062 14.2095C69.1119 14.2097 68.4109 14.2574 67.8164 14.5558C66.6501 15.1408 66.6333 15.2508 66.6301 22.2715L66.6272 28.6521H60.4971H54.3669V18.4324V8.21277L55.1848 7.51239C57.1692 5.81287 57.258 3.20247 55.3964 1.29106C53.4195 -0.738667 50.0187 -0.172426 48.7377 2.3994C47.8204 4.24156 48.2172 6.16366 49.7937 7.51397L50.6133 8.21594L50.5621 18.3845L50.5109 28.5531H45.9627H41.4146L41.3157 16.1876C41.2415 6.92517 41.1559 3.71568 40.9738 3.39774C40.5214 2.60774 39.8099 2.53611 32.4104 2.53611H25.3438L24.9973 1.99203C24.4571 1.14346 23.7035 0.590674 22.6422 0.264225C21.5816 -0.0622247 21.3705 -0.0723149 20.4013 0.157782ZM70.502 32.59C71.0013 32.8168 71.4945 33.2516 71.7874 33.7233L72.2629 34.4886V51.8003C72.2629 68.9074 72.2582 69.1201 71.8568 69.8039C71.6333 70.1843 71.153 70.6962 70.7893 70.9415L70.1281 71.3872H51.4007H32.6734L32.0121 70.9415C31.6485 70.6962 31.1682 70.1843 30.9447 69.8039C30.5433 69.1201 30.5385 68.9074 30.5385 51.8003V34.4886L30.9882 33.7649C31.2447 33.3525 31.7974 32.8633 32.2736 32.6274C33.1035 32.2165 33.2362 32.2137 51.4007 32.2179C68.8059 32.2218 69.7314 32.2398 70.502 32.59ZM42.6536 43.6721L42.0078 44.2492L41.9548 51.5366C41.9068 58.1763 41.9331 58.8852 42.2514 59.5136C42.4438 59.8929 42.8235 60.3145 43.0954 60.4504C43.712 60.7586 58.7974 60.8136 59.5941 60.5105C59.8732 60.4045 60.2807 60.026 60.5 59.6697C60.8839 59.0461 60.8969 58.7448 60.8463 51.6355L60.7937 44.2492L60.1478 43.6721L59.502 43.095H51.4007H43.2995L42.6536 43.6721Z" fill="#3E322F"/>
</svg>
